<svg id="visual" viewBox="0 0 900 600" width="900" height="600" xmlns="http://www.w3.org/2000/svg" xmlns:xlink="http://www.w3.org/1999/xlink" version="1.1"><g stroke-width="1" stroke-linejoin="bevel"><path d="M469 304L421 394L483 385Z" fill="#fe3c7d" stroke="#fe3c7d"></path><path d="M469 304L386 280L421 394Z" fill="#f50057" stroke="#f50057"></path><path d="M483 385L561 307L469 304Z" fill="#ff4081" stroke="#ff4081"></path><path d="M469 304L438 192L386 280Z" fill="#ff4081" stroke="#ff4081"></path><path d="M386 280L310 315L421 394Z" fill="#f50057" stroke="#f50057"></path><path d="M501 499L574 411L483 385Z" fill="#fc2e70" stroke="#fc2e70"></path><path d="M483 385L574 411L561 307Z" fill="#fb296c" stroke="#fb296c"></path><path d="M326 482L406 494L421 394Z" fill="#fb296c" stroke="#fb296c"></path><path d="M421 394L501 499L483 385Z" fill="#f91d64" stroke="#f91d64"></path><path d="M310 315L304 410L421 394Z" fill="#fb296c" stroke="#fb296c"></path><path d="M518 187L438 192L469 304Z" fill="#fb296c" stroke="#fb296c"></path><path d="M386 280L277 181L310 315Z" fill="#f91d64" stroke="#f91d64"></path><path d="M406 494L501 499L421 394Z" fill="#f91d64" stroke="#f91d64"></path><path d="M561 307L518 187L469 304Z" fill="#fe3779" stroke="#fe3779"></path><path d="M304 410L326 482L421 394Z" fill="#f8165f" stroke="#f8165f"></path><path d="M501 499L602 465L574 411Z" fill="#ff4081" stroke="#ff4081"></path><path d="M734 326L632 222L561 307Z" fill="#f91d64" stroke="#f91d64"></path><path d="M734 326L561 307L574 411Z" fill="#fd3374" stroke="#fd3374"></path><path d="M561 307L632 222L518 187Z" fill="#f8165f" stroke="#f8165f"></path><path d="M463 115L438 192L518 187Z" fill="#f60d5b" stroke="#f60d5b"></path><path d="M463 115L432 115L438 192Z" fill="#fc2e70" stroke="#fc2e70"></path><path d="M438 192L277 181L386 280Z" fill="#fa2468" stroke="#fa2468"></path><path d="M629 91L463 115L518 187Z" fill="#ff4081" stroke="#ff4081"></path><path d="M432 115L277 181L438 192Z" fill="#fe3779" stroke="#fe3779"></path><path d="M310 315L176 407L304 410Z" fill="#fe3c7d" stroke="#fe3c7d"></path><path d="M592 600L662 481L602 465Z" fill="#fe3779" stroke="#fe3779"></path><path d="M602 465L723 420L574 411Z" fill="#fb296c" stroke="#fb296c"></path><path d="M326 482L399 600L406 494Z" fill="#fa2468" stroke="#fa2468"></path><path d="M406 494L494 600L501 499Z" fill="#fb296c" stroke="#fb296c"></path><path d="M501 499L592 600L602 465Z" fill="#fb296c" stroke="#fb296c"></path><path d="M399 600L494 600L406 494Z" fill="#fe3c7d" stroke="#fe3c7d"></path><path d="M277 181L235 206L310 315Z" fill="#fc2e70" stroke="#fc2e70"></path><path d="M304 410L164 461L326 482Z" fill="#fa2468" stroke="#fa2468"></path><path d="M179 277L176 407L310 315Z" fill="#fa2468" stroke="#fa2468"></path><path d="M326 482L282 600L399 600Z" fill="#fa2468" stroke="#fa2468"></path><path d="M235 206L179 277L310 315Z" fill="#f60d5b" stroke="#f60d5b"></path><path d="M662 481L723 420L602 465Z" fill="#fc2e70" stroke="#fc2e70"></path><path d="M723 420L734 326L574 411Z" fill="#fa2468" stroke="#fa2468"></path><path d="M494 600L592 600L501 499Z" fill="#fe3c7d" stroke="#fe3c7d"></path><path d="M662 481L765 513L723 420Z" fill="#ff4081" stroke="#ff4081"></path><path d="M235 600L282 600L326 482Z" fill="#f91d64" stroke="#f91d64"></path><path d="M139 417L164 461L176 407Z" fill="#f8165f" stroke="#f8165f"></path><path d="M176 407L164 461L304 410Z" fill="#f60d5b" stroke="#f60d5b"></path><path d="M734 326L723 223L632 222Z" fill="#fa2468" stroke="#fa2468"></path><path d="M632 222L629 91L518 187Z" fill="#fe3c7d" stroke="#fe3c7d"></path><path d="M77 307L139 417L176 407Z" fill="#fd3374" stroke="#fd3374"></path><path d="M432 115L284 79L277 181Z" fill="#fd3374" stroke="#fd3374"></path><path d="M277 181L203 106L235 206Z" fill="#fe3c7d" stroke="#fe3c7d"></path><path d="M235 206L96 201L179 277Z" fill="#f60d5b" stroke="#f60d5b"></path><path d="M370 0L284 79L432 115Z" fill="#f91d64" stroke="#f91d64"></path><path d="M723 223L629 91L632 222Z" fill="#f60d5b" stroke="#f60d5b"></path><path d="M463 115L522 0L432 115Z" fill="#fe3c7d" stroke="#fe3c7d"></path><path d="M164 461L235 600L326 482Z" fill="#fa2468" stroke="#fa2468"></path><path d="M139 511L235 600L164 461Z" fill="#f91d64" stroke="#f91d64"></path><path d="M723 420L779 369L734 326Z" fill="#fe3c7d" stroke="#fe3c7d"></path><path d="M734 326L802 309L723 223Z" fill="#f91d64" stroke="#f91d64"></path><path d="M765 513L779 369L723 420Z" fill="#f60d5b" stroke="#f60d5b"></path><path d="M284 79L203 106L277 181Z" fill="#fe3779" stroke="#fe3779"></path><path d="M179 277L77 307L176 407Z" fill="#f8165f" stroke="#f8165f"></path><path d="M592 600L686 600L662 481Z" fill="#f60d5b" stroke="#f60d5b"></path><path d="M139 417L139 511L164 461Z" fill="#fe3779" stroke="#fe3779"></path><path d="M629 91L522 0L463 115Z" fill="#f8165f" stroke="#f8165f"></path><path d="M522 0L370 0L432 115Z" fill="#fe3c7d" stroke="#fe3c7d"></path><path d="M284 79L224 0L203 106Z" fill="#f8165f" stroke="#f8165f"></path><path d="M779 369L802 309L734 326Z" fill="#ff4081" stroke="#ff4081"></path><path d="M723 223L739 94L629 91Z" fill="#fe3779" stroke="#fe3779"></path><path d="M686 600L765 513L662 481Z" fill="#f50057" stroke="#f50057"></path><path d="M779 369L900 383L802 309Z" fill="#fa2468" stroke="#fa2468"></path><path d="M802 309L769 180L723 223Z" fill="#fd3374" stroke="#fd3374"></path><path d="M629 91L565 0L522 0Z" fill="#fb296c" stroke="#fb296c"></path><path d="M370 0L329 0L284 79Z" fill="#f60d5b" stroke="#f60d5b"></path><path d="M664 0L565 0L629 91Z" fill="#f91d64" stroke="#f91d64"></path><path d="M96 201L77 307L179 277Z" fill="#fc2e70" stroke="#fc2e70"></path><path d="M0 509L76 600L139 511Z" fill="#fb296c" stroke="#fb296c"></path><path d="M203 106L96 201L235 206Z" fill="#fe3779" stroke="#fe3779"></path><path d="M769 180L739 94L723 223Z" fill="#fc2e70" stroke="#fc2e70"></path><path d="M739 94L664 0L629 91Z" fill="#f50057" stroke="#f50057"></path><path d="M329 0L224 0L284 79Z" fill="#ff4081" stroke="#ff4081"></path><path d="M203 106L86 104L96 201Z" fill="#fe3c7d" stroke="#fe3c7d"></path><path d="M686 600L783 600L765 513Z" fill="#fd3374" stroke="#fd3374"></path><path d="M765 513L900 383L779 369Z" fill="#fb296c" stroke="#fb296c"></path><path d="M224 0L86 104L203 106Z" fill="#fa2468" stroke="#fa2468"></path><path d="M96 201L0 282L77 307Z" fill="#f8165f" stroke="#f8165f"></path><path d="M769 180L809 90L739 94Z" fill="#fc2e70" stroke="#fc2e70"></path><path d="M739 94L766 0L664 0Z" fill="#f91d64" stroke="#f91d64"></path><path d="M900 99L809 90L769 180Z" fill="#fe3779" stroke="#fe3779"></path><path d="M0 437L139 511L139 417Z" fill="#f50057" stroke="#f50057"></path><path d="M139 511L76 600L235 600Z" fill="#fc2e70" stroke="#fc2e70"></path><path d="M0 196L0 282L96 201Z" fill="#fa2468" stroke="#fa2468"></path><path d="M77 307L0 437L139 417Z" fill="#ff4081" stroke="#ff4081"></path><path d="M0 282L0 437L77 307Z" fill="#f91d64" stroke="#f91d64"></path><path d="M900 528L900 383L765 513Z" fill="#f91d64" stroke="#f91d64"></path><path d="M802 309L900 235L769 180Z" fill="#fd3374" stroke="#fd3374"></path><path d="M900 383L900 280L802 309Z" fill="#fe3c7d" stroke="#fe3c7d"></path><path d="M900 280L900 235L802 309Z" fill="#f8165f" stroke="#f8165f"></path><path d="M86 104L0 196L96 201Z" fill="#f91d64" stroke="#f91d64"></path><path d="M0 437L0 509L139 511Z" fill="#f50057" stroke="#f50057"></path><path d="M900 0L766 0L809 90Z" fill="#fe3779" stroke="#fe3779"></path><path d="M809 90L766 0L739 94Z" fill="#f60d5b" stroke="#f60d5b"></path><path d="M783 600L900 528L765 513Z" fill="#f50057" stroke="#f50057"></path><path d="M0 509L0 600L76 600Z" fill="#f91d64" stroke="#f91d64"></path><path d="M224 0L67 0L86 104Z" fill="#fe3c7d" stroke="#fe3c7d"></path><path d="M86 104L0 61L0 196Z" fill="#fb296c" stroke="#fb296c"></path><path d="M783 600L900 600L900 528Z" fill="#f8165f" stroke="#f8165f"></path><path d="M900 235L900 99L769 180Z" fill="#fe3779" stroke="#fe3779"></path><path d="M67 0L0 61L86 104Z" fill="#fb296c" stroke="#fb296c"></path><path d="M67 0L0 0L0 61Z" fill="#fe3779" stroke="#fe3779"></path><path d="M900 99L900 0L809 90Z" fill="#f60d5b" stroke="#f60d5b"></path></g></svg>