<svg id="visual" viewBox="0 0 900 600" width="900" height="600" xmlns="http://www.w3.org/2000/svg" xmlns:xlink="http://www.w3.org/1999/xlink" version="1.1"><rect width="900" height="600" fill="#ff4081"></rect><g><g transform="translate(329 67)"><path d="M0 -94.6L81.9 -47.3L81.9 47.3L0 94.6L-81.9 47.3L-81.9 -47.3Z" fill="none" stroke="#ff80ab" stroke-width="12"></path></g><g transform="translate(330 520)"><path d="M0 -66L57.2 -33L57.2 33L0 66L-57.2 33L-57.2 -33Z" fill="none" stroke="#ff80ab" stroke-width="12"></path></g><g transform="translate(125 565)"><path d="M0 -86L74.5 -43L74.5 43L0 86L-74.5 43L-74.5 -43Z" fill="none" stroke="#ff80ab" stroke-width="12"></path></g><g transform="translate(746 359)"><path d="M0 -50L43.3 -25L43.3 25L0 50L-43.3 25L-43.3 -25Z" stroke="#ff80ab" fill="none" stroke-width="12"></path></g><g transform="translate(119 11)"><path d="M0 -93L80.5 -46.5L80.5 46.5L0 93L-80.5 46.5L-80.5 -46.5Z" stroke="#ff80ab" fill="none" stroke-width="12"></path></g><g transform="translate(568 244)"><path d="M0 -71L61.5 -35.5L61.5 35.5L0 71L-61.5 35.5L-61.5 -35.5Z" stroke="#ff80ab" fill="none" stroke-width="12"></path></g><g transform="translate(841 108)"><path d="M0 -79L68.4 -39.5L68.4 39.5L0 79L-68.4 39.5L-68.4 -39.5Z" stroke="#ff80ab" fill="none" stroke-width="12"></path></g><g transform="translate(690 595)"><path d="M0 -50L43.3 -25L43.3 25L0 50L-43.3 25L-43.3 -25Z" stroke="#ff80ab" fill="none" stroke-width="12"></path></g></g></svg>